<?xml version="1.0" encoding="UTF-8"?>
<svg width="2578px" height="1034px" viewBox="0 0 2578 1034" version="1.1" xmlns="http://www.w3.org/2000/svg" xmlns:xlink="http://www.w3.org/1999/xlink">
    <title>Lines-blue</title>
    <!-- <defs>
        <filter color-interpolation-filters="auto" id="filter-1">
            <feColorMatrix in="SourceGraphic" type="matrix" values="0 0 0 0 0.000000 0 0 0 0 0.859047 0 0 0 0 1.000000 0 0 0 1.000000 0"></feColorMatrix>
        </filter>
    </defs> -->
    <g id="Lines-blue" stroke="none" stroke-width="1" fill="none" fill-rule="evenodd">
        <g id="Schnuersenkel_Grafik_RZ" transform="translate(1.782083, 2.705797)">
            <g transform="translate(1515.904312, 1070.290238) scale(-1, 1) rotate(20.000000) translate(-1515.904312, -1070.290238) translate(-38.984867, 479.290238)">
                <g id="Group" transform="translate(6.178777, 77.234710)" fill="#00DBFF" fill-rule="nonzero">
                    <path d="M3.0893884,407.18139 L917.702823,685.071877 L912.914271,685.380815 L1582.84814,394.05149 L1582.23027,394.360429 L1850.08024,113.380554 L1851.47047,111.990329 L1853.47857,111.83586 C1957.28202,102.104286 2061.08547,92.9905907 2165.04339,84.0313643 L2320.90303,70.7469942 L2476.76268,57.771563 L2632.62232,45.1050706 L2671.54861,42.0156822 L2691.01176,40.470988 C2694.25562,40.1620491 2697.49948,40.0075797 2700.74334,39.6986409 L2710.47491,38.6173549 L2788.17303,30.1215369 C2891.82201,19.1542081 2995.47099,8.65028751 3099.42891,0 L3101.12807,15.6014114 C2997.78803,29.812598 2894.13905,42.0156822 2790.49007,53.6008887 L2712.79195,62.0967067 L2703.06038,63.1779927 C2699.81652,63.6414009 2696.57266,63.6414009 2693.3288,63.9503398 L2673.86566,65.3405646 L2634.78489,68.2754835 L2478.77078,79.7062206 L2322.75666,90.8280188 L2166.74255,101.640878 C2062.63016,108.746472 1958.67224,115.543126 1854.55985,121.876372 L1857.95818,120.331678 L1585.01072,396.523001 L1584.70178,396.831939 L1584.39284,396.986409 L918.629639,697.5839 L916.312598,698.665186 L913.841087,697.892838 L0,417.376372 L3.0893884,407.18139 Z" id="Path" fill="#00DBFF"></path>
                    <path d="M3.24385781,442.091479 L117.705698,477.001568 L232.167538,512.066127 L460.782279,582.813121 L689.39702,654.023523 L917.857292,725.542865 L912.914271,725.851803 L997.100105,685.998693 L1081.44041,646.454522 L1250.27548,567.829587 L1419.11056,489.050183 C1475.33743,462.635912 1531.40983,436.067172 1587.48223,409.498432 L1587.01882,409.807371 L1620.22974,376.750915 L1653.2862,343.694459 L1686.18819,310.483534 L1718.9357,277.118139 L1783.96733,210.23288 L1849.61683,143.65656 L1851.00706,142.266336 L1853.16963,142.266336 L2277.18819,127.282802 L2383.15421,123.575536 L2489.12023,120.022739 L2595.08625,116.778881 L2701.05227,113.689493 L2699.19864,113.843962 L2798.83142,95.6165708 L2848.72504,86.8118139 C2865.40774,83.8768949 2881.93596,80.941976 2898.61866,78.007057 L2948.51228,69.3567695 L2998.40591,61.0154208 C3031.7713,55.6089911 3065.1367,50.048092 3098.50209,44.9506012 L3101.28254,60.3975431 C3068.22608,67.5031364 3035.16963,74.1453215 3001.9587,80.7875065 L2952.21955,90.51908 L2902.4804,100.096184 C2885.95217,103.340042 2869.26947,106.42943 2852.74124,109.518819 L2803.00209,118.786984 L2703.36932,137.014375 L2702.4425,137.168845 L2701.51568,137.168845 L2595.54966,139.640355 L2489.58364,141.802927 L2383.61762,143.81103 L2277.65159,145.510193 L1853.47857,152.306848 L1857.03136,150.762154 L1789.99164,215.948249 L1722.79744,280.979875 L1689.27757,313.572922 L1655.75771,346.320439 L1622.39232,379.067956 L1589.18139,411.969942 L1589.02692,412.124412 L1588.71798,412.278881 C1532.80005,439.15656 1476.88212,466.034239 1420.96419,493.220857 L1253.67381,574.93518 L1086.38343,656.803973 L1002.661,697.42943 L918.784109,737.900418 L916.467067,738.981704 L913.841087,738.209357 L685.226346,667.307893 L456.611605,596.40643 L228.305802,524.732619 L114.152901,488.586775 L0.15446942,452.286461 L3.24385781,442.091479 Z" id="Path" fill="#00DBFF"></path>
                    <path d="M3.39832723,477.001568 L117.860167,512.684004 L232.322007,548.52091 L460.936749,620.658129 L689.39702,693.258756 L917.857292,766.168322 L912.759801,766.63173 L997.563513,723.689232 L1082.36722,680.901202 L1252.28359,595.943021 L1337.24177,553.463931 L1422.19995,510.830371 L1507.00366,468.042342 C1535.27156,453.676686 1563.53947,439.465499 1591.6529,424.945374 L1591.18949,425.254313 C1612.81521,404.55541 1634.44093,383.702039 1656.06665,362.848667 C1677.5379,341.995295 1699.00915,320.987454 1720.4804,299.979613 L1784.73968,236.95609 L1849.15342,174.087036 L1850.69812,172.696811 L1852.86069,172.696811 L2278.115,179.493466 L2384.38996,181.192629 L2490.66492,183.200732 L2596.93988,185.363304 L2703.21485,187.680345 L2699.97099,187.989284 L2799.14036,162.50183 L2848.87951,149.989807 C2865.40774,145.819132 2881.93596,141.648458 2898.61866,137.632253 L2948.35781,125.429169 L2998.09697,113.380554 C3031.30789,105.502614 3064.51882,97.6246733 3097.88421,90.2101411 L3101.74595,105.502614 C3068.99843,114.925248 3035.94198,124.038944 3003.03999,132.99817 L2953.60978,146.43701 L2904.17956,159.566911 C2887.65133,164.046524 2871.12311,168.371668 2854.59488,172.542342 L2805.01019,185.517773 L2705.84083,210.850758 L2704.29613,211.314166 L2702.59697,211.314166 L2596.32201,208.224778 L2490.04705,204.98092 L2383.77209,201.582593 L2277.49712,197.875327 L1852.39728,183.046262 L1856.10455,181.656038 L1790.45504,243.134867 L1724.65107,304.459226 C1702.71641,324.84919 1680.78176,345.393623 1659.00157,365.938055 C1637.22138,386.482488 1615.44119,407.18139 1593.661,427.880293 L1593.50653,428.034762 L1593.35206,428.189232 C1565.08416,442.554888 1536.97073,457.229482 1508.85729,471.595139 L1424.51699,515.309984 L1340.33116,559.333769 L1256.14532,603.357554 L1087.77365,691.559592 L1003.43335,735.428907 L918.784109,778.680345 L916.312598,779.9161 L913.686618,778.989284 L685.071877,706.697595 L456.611605,633.942499 L228.305802,560.878463 L114.152901,524.114741 L0.15446942,487.19655 L3.39832723,477.001568 Z" id="Path" fill="#00DBFF"></path>
                    <path d="M3.39832723,511.911657 L117.860167,548.211971 L232.322007,584.666754 L460.936749,658.194198 L689.39702,732.339519 L917.857292,806.63931 L912.450863,807.102718 L997.717982,760.916362 L1083.13957,715.038944 L1254.29169,623.747517 L1339.86775,578.179038 C1368.44459,563.041035 1396.86696,547.748562 1425.28934,532.45609 C1453.71171,517.163617 1482.28855,501.871145 1510.71093,486.424203 C1539.1333,470.977261 1567.55567,455.684788 1595.97804,440.083377 L1595.66911,440.392316 C1606.3275,430.660742 1616.98589,420.929169 1627.48981,411.043126 L1659.15604,381.539467 L1722.33403,322.377679 L1785.35755,263.061422 L1848.53555,203.899634 L1850.08024,202.35494 L1852.39728,202.509409 L2279.04182,230.931783 L2385.62572,238.037376 L2492.20962,245.451908 L2598.79352,253.02091 L2705.37742,260.744381 L2700.74334,261.362258 L2799.44929,228.769211 L2848.87951,212.704391 L2898.30972,196.639571 L2947.89441,180.729221 L2997.47909,165.12781 C3030.53555,154.778359 3063.74647,144.428907 3096.9574,134.697334 L3101.90042,149.680868 C3069.30737,161.575013 3036.55985,173.00575 3003.81234,184.436487 L2954.69106,201.428123 L2905.41532,218.26529 L2856.13957,234.947987 L2806.86383,251.476215 L2708.0034,284.069263 L2705.68636,284.84161 L2703.36932,284.687141 L2596.78542,276.191323 L2490.20152,267.541035 L2383.61762,258.581809 L2277.18819,249.468113 L1851.16153,212.85886 L1855.02326,211.468636 L1790.60951,269.240199 L1726.0413,326.857292 L1661.93649,384.783325 L1629.80685,413.823576 C1619.14846,423.555149 1608.49007,433.286722 1597.83168,443.018296 L1597.67721,443.172765 L1597.52274,443.327235 C1569.10037,458.774177 1540.83246,474.375588 1512.41009,489.82253 C1483.98772,505.423941 1455.71981,521.025353 1427.45191,536.626764 C1399.184,552.228176 1370.9161,567.984056 1342.6482,583.739937 L1257.99895,631.00758 L1088.85494,725.388395 L1003.89676,772.347099 L918.938578,819.151333 L916.312598,820.541558 L913.532148,819.614741 L684.917407,745.932828 L456.457135,671.787507 L228.151333,597.333246 L114.152901,559.797177 L0.15446942,522.106639 L3.39832723,511.911657 Z" id="Path" fill="#00DBFF"></path>
                    <path d="M3.55279665,546.976215 L118.014637,584.048876 L232.476477,621.276006 L461.091218,696.193675 L689.55149,771.574752 L917.857292,847.264767 L912.296393,847.882645 L998.18139,798.6069 L1084.22086,749.485625 L1256.45426,651.860951 L1342.6482,603.048615 L1385.74516,578.642446 L1428.68766,554.081809 L1471.63016,529.521171 L1514.57266,504.806064 L1557.51516,480.090957 L1600.30319,455.375849 L1599.99425,455.530319 L1631.19707,428.034762 L1662.24543,400.384736 L1724.18766,344.930214 L1785.97543,289.321223 L1847.91767,233.866702 L1849.61683,232.322007 L1851.93387,232.630946 L2279.81417,282.833508 L2493.75431,308.166492 L2600.64715,321.141924 L2707.53999,334.426294 L2701.67015,335.198641 C2734.41767,321.759801 2767.16519,308.629901 2799.9127,295.345531 L2849.18845,275.573445 C2865.56221,269.085729 2882.09043,262.443544 2898.46419,255.955829 L2947.73994,236.492682 L2997.17015,217.184004 C3030.22661,204.517512 3063.12859,191.69655 3096.33952,179.493466 L3102.20936,194.013591 C3069.77078,208.224778 3037.3322,222.127026 3004.73915,236.029273 L2955.77235,256.573706 L2906.80554,276.96367 C2890.43178,283.760324 2874.05802,290.402509 2857.68427,297.199164 L2808.56299,317.280188 C2775.81547,330.564558 2743.06796,344.003398 2710.16597,357.133298 L2707.23105,358.369054 L2704.14166,357.905646 L2597.40329,344.003398 L2490.66492,329.792211 L2277.18819,300.90643 L1850.23471,242.671458 L1854.25091,241.435703 L1791.07292,295.5 L1727.89493,349.409827 L1664.71694,403.474124 L1633.20518,430.660742 L1601.84788,458.00183 L1601.69341,458.156299 L1601.53894,458.310768 L1558.75091,483.025876 L1516.42629,508.35886 L1473.63826,533.228437 L1431.0047,558.252483 L1388.37114,583.276529 L1345.73758,608.455044 L1260.47047,658.812075 L1090.0907,759.526137 L1004.66911,809.574229 L919.093048,859.467852 L916.467067,861.012546 L913.532148,860.085729 L684.917407,785.013591 L456.457135,709.478045 L228.151333,633.63356 L114.152901,595.479613 L0.15446942,557.171197 L3.55279665,546.976215 Z" id="Path" fill="#00DBFF"></path>
                    <path d="M3.70726607,581.886304 L118.169106,619.576843 L232.476477,657.42185 L461.091218,733.729744 L689.55149,810.501045 L917.857292,887.581286 L912.141924,888.199164 L998.490329,835.83403 L1084.9932,783.623366 L1258.46236,679.819916 L1345.11971,627.918191 L1388.52561,601.967329 L1431.77705,575.861997 L1475.02849,549.756665 L1518.27993,523.496864 L1561.53136,497.237062 L1604.62833,470.822791 L1604.47386,470.977261 C1624.86383,453.831155 1645.25379,436.839519 1665.48928,419.538944 L1726.19577,367.791688 C1766.66675,333.190538 1806.98327,298.589388 1847.45426,264.142708 L1849.15342,262.752483 L1851.47047,263.215891 L2280.74098,335.198641 L2495.29901,371.344485 L2602.50078,389.726346 L2709.70256,408.417146 L2702.59697,409.343962 C2735.19002,393.433612 2767.78306,377.98667 2800.37611,362.230789 C2816.74987,354.352849 2833.12363,346.629378 2849.34292,338.905907 C2865.71668,331.182436 2882.09043,323.304496 2898.46419,315.581025 L2947.58547,292.565081 L2996.86121,269.703607 C3029.7632,254.565604 3062.66519,239.427601 3095.72164,224.753006 L3102.5183,238.964192 C3070.38866,255.64689 3037.95008,271.866179 3005.66597,288.085468 L2957.0081,312.337167 L2908.35024,336.279927 C2892.13095,344.312337 2875.75719,352.190277 2859.5379,360.068217 C2843.31861,367.946158 2826.94485,375.978568 2810.72556,383.702039 C2778.13251,399.30345 2745.53947,415.2138 2712.79195,430.660742 L2709.23915,432.359906 L2705.53189,431.742028 L2598.48458,412.433351 L2491.43727,392.815734 L2277.49712,353.117094 L1849.61683,273.101934 L1853.63304,272.020648 C1812.54417,305.694982 1771.14637,339.214846 1729.90303,372.73471 L1668.11526,423.24621 C1647.57083,440.083377 1627.0264,457.075013 1606.63643,474.066649 L1606.48197,474.221119 L1606.3275,474.221119 L1563.23053,500.635389 L1520.13356,527.04966 L1477.03659,553.463931 L1434.09409,580.032671 L1391.15159,606.601411 L1348.2091,633.324621 L1262.47857,686.77104 L1091.01751,793.818348 L1005.13251,847.110298 L919.093048,900.093309 L916.467067,901.792473 L913.377679,900.711187 L684.917407,824.248824 L456.457135,747.323053 L228.151333,670.088343 L114.152901,631.162049 L0.15446942,592.081286 L3.70726607,581.886304 Z" id="Path" fill="#00DBFF"></path>
                    <path d="M3.86173549,616.796393 L118.323576,655.259279 L232.630946,693.876634 L461.245687,771.574752 L689.705959,849.736278 L918.011762,928.206743 L912.141924,928.97909 C970.067956,891.90643 1028.14846,854.833769 1086.22896,818.070047 L1260.7794,707.933351 L1348.05463,652.787768 L1391.76947,625.292211 L1435.32985,597.642185 L1478.89022,569.992159 L1522.29613,542.187663 L1565.70204,514.383168 L1609.10795,486.424203 L1608.95348,486.578672 C1628.88003,470.668322 1648.80659,454.912441 1668.73314,438.847622 L1728.20387,390.807632 L1846.99085,294.573183 L1848.69002,293.182959 L1851.00706,293.646367 L2281.6678,387.409305 C2425.16989,418.612128 2568.67198,450.123889 2712.0196,482.407998 L2703.67825,483.643753 C2736.11683,465.416362 2768.55541,447.34344 2800.99399,429.270518 C2817.21328,420.156822 2833.58704,411.197595 2849.80633,402.238369 L2898.61866,375.36069 L2947.58547,348.63748 L2996.70674,322.06874 C3029.45426,304.459226 3062.20178,287.004182 3095.25823,269.858076 L3102.9817,283.605855 C3071.00653,302.605593 3038.87689,321.296393 3006.59279,339.987193 L2958.24386,367.791688 L2909.74046,395.441715 L2861.23706,422.782802 C2845.01777,431.896498 2828.79848,441.010193 2812.57919,450.123889 C2780.14062,468.196811 2747.70204,486.424203 2715.10899,504.342656 L2711.09279,506.505227 L2706.76764,505.578411 C2563.57449,472.676424 2420.69028,439.15656 2277.65159,405.173288 L1848.84449,303.069002 L1852.86069,302.142185 L1731.75666,395.441715 L1671.20465,442.245949 C1651.12363,457.84736 1631.0426,473.603241 1610.96158,489.359122 L1610.96158,489.359122 L1610.96158,489.359122 L1567.55567,517.318087 L1524.30423,545.431521 L1481.0528,573.544956 L1437.80136,601.65839 L1394.54992,629.926294 L1351.45295,658.194198 L1265.10455,714.884475 L1092.56221,828.110559 C1034.94511,865.801098 977.328019,903.182697 919.556456,940.564297 L916.776006,942.41793 L913.686618,941.336644 L685.226346,863.329587 L456.920544,785.013591 L228.614741,706.234187 L114.616309,666.690016 L0.617877679,626.991375 L3.86173549,616.796393 Z" id="Path" fill="#00DBFF"></path>
                    <path d="M4.01620491,651.706482 L118.478045,690.941715 L232.785416,730.331417 L461.400157,809.41976 L689.860429,888.971511 L918.166231,968.832201 L912.141924,969.604548 L1030.00209,890.516205 C1069.39179,864.256404 1108.7815,837.996602 1148.1712,811.89127 L1384.81835,655.104809 L1443.82567,615.715107 L1502.83298,576.170936 L1561.8403,536.626764 L1591.18949,516.700209 L1605.86409,506.814166 L1613.27862,501.871145 L1620.38421,496.619185 C1696.2287,439.928907 1771.14637,382.157344 1846.52744,324.84919 L1848.38108,323.458965 L1850.69812,324.076843 L2282.59462,439.465499 L2498.54286,497.391532 C2570.52561,516.854679 2642.35389,536.317825 2714.18217,556.089911 L2704.75954,557.480136 L2753.10847,526.586252 L2801.61187,495.846837 L2825.86357,480.554365 L2850.11526,465.261892 L2898.77313,434.676947 L2947.58547,404.400941 L2996.3978,374.279404 C3028.99085,354.352849 3061.73837,334.271824 3094.64036,314.808677 L3103.13617,328.093048 C3071.46994,349.564297 3039.3403,370.572138 3007.36513,391.579979 L2959.32514,422.937271 L2911.13068,454.140094 L2862.78176,485.188447 L2838.53006,500.635389 L2814.27836,516.082331 L2765.77496,546.821746 L2717.27156,577.406691 L2712.79195,580.187141 L2707.84893,578.796916 C2636.02065,558.715891 2564.34684,538.480397 2492.67303,518.090434 L2277.80606,456.611605 L1848.07214,333.190538 L1852.08834,332.418191 C1775.47151,388.181652 1698.54574,443.327235 1622.39232,499.554104 L1615.28672,504.806064 L1607.87219,509.749085 L1593.1976,519.635128 L1563.84841,539.561683 L1505.15003,579.414794 L1446.45165,619.422373 L1387.90774,659.584422 L1154.04104,820.696027 C1115.11474,847.573706 1076.03398,874.296916 1036.95321,901.020125 L919.556456,980.880815 L916.776006,982.734449 L913.532148,981.653163 L685.071877,902.255881 L456.766074,822.54966 L228.460272,742.534501 L114.46184,702.217982 L0.463408259,661.746994 L4.01620491,651.706482 Z" id="Path" fill="#00DBFF"></path>
                    <path d="M4.17067433,686.616571 L118.632514,726.469681 L232.939885,766.477261 L461.400157,846.955829 L689.860429,927.897804 L918.166231,1009.14872 L911.987454,1010.07554 L1028.61187,928.052274 C1067.53816,900.865656 1106.61892,873.524569 1145.69969,846.49242 L1380.0298,683.836121 C1458.03685,629.462886 1536.04391,574.93518 1613.58756,519.944067 C1652.51385,492.60298 1691.44015,465.261892 1730.0575,437.611866 L1846.2185,354.816257 L1848.07214,353.580502 L1850.23471,354.352849 L2283.52143,491.521694 L2391.8045,525.813905 L2500.08756,560.260585 L2608.21615,594.861735 L2716.34475,629.771824 L2705.84083,631.316519 L2754.03528,596.869838 L2802.38421,562.577627 C2834.51385,539.561683 2866.95243,517.009148 2899.23654,494.147674 C2931.67512,471.440669 2963.95923,448.888134 2996.55227,426.490068 C3029.14532,404.092002 3061.5839,381.693936 3094.48589,359.759279 L3103.59958,372.58024 C3072.08782,396.368531 3040.26712,419.847883 3008.44642,443.172765 C2976.62572,466.497648 2944.65055,489.668061 2912.67538,512.838474 C2880.54574,535.854417 2848.57057,559.02483 2816.28646,581.886304 L2768.092,616.178515 L2719.74307,650.470727 L2714.95452,653.869054 L2709.39362,652.015421 L2601.57397,616.332985 L2493.75431,580.34161 L2386.08913,544.195766 L2278.42394,507.895452 L1847.14532,363.157606 L1851.16153,362.539728 C1772.53659,415.986147 1693.44825,468.969158 1615.44119,523.187925 C1537.74307,578.024569 1460.35389,633.324621 1383.11918,688.779143 L1151.72399,855.606116 C1113.26111,883.410612 1074.48928,911.060638 1035.87193,938.865133 L919.710925,1021.50627 L916.776006,1023.51438 L913.377679,1022.27862 L684.917407,941.491113 L456.611605,860.394668 L228.460272,778.834814 L114.46184,737.900418 L0.463408259,696.811553 L4.17067433,686.616571 Z" id="Path" fill="#00DBFF"></path>
                    <path d="M4.17067433,721.681129 L118.478045,762.306587 L232.785416,803.086513 L461.245687,884.955306 L689.55149,967.287507 L917.857292,1049.92865 L911.369577,1050.85546 L1026.9127,966.051751 L1084.83873,923.72713 L1142.76477,881.556979 L1374.93231,713.33978 C1413.70413,685.380815 1452.16702,657.112912 1490.78437,628.999477 L1548.55593,586.520387 L1577.44171,565.358076 L1606.3275,544.041296 L1620.69315,533.382906 C1625.63617,529.984579 1630.73366,526.895191 1635.67669,523.496864 L1665.64375,503.879247 L1725.57789,464.489545 L1845.13722,385.246733 L1846.99085,384.010978 L1849.15342,384.783325 L2283.98484,543.886827 L2501.16884,623.438578 L2609.60638,663.446158 L2718.04391,703.762676 L2706.61317,705.46184 L2754.49869,667.307893 L2802.53868,629.308416 C2834.51385,603.975431 2866.79796,578.796916 2898.9276,553.6184 C2931.21171,528.594354 2963.34135,503.570308 2995.77993,478.700732 C3028.2185,453.831155 3060.65708,429.116048 3093.4046,404.70988 L3103.13617,417.067433 C3071.77888,443.327235 3040.26712,469.123628 3008.60089,494.920021 C2976.93466,520.716414 2945.11396,546.203868 2913.29326,571.845792 C2881.31809,597.333246 2849.49739,622.8207 2817.36775,647.999216 L2769.32776,685.998693 L2721.1333,723.843701 L2715.88134,728.014375 L2709.70256,725.697334 L2601.57397,684.608468 L2493.59984,643.210664 L2277.80606,559.951647 L1846.2185,393.124673 L1850.08024,392.661265 L1728.66728,468.969158 L1668.11526,507.277574 L1637.83926,526.586252 L1630.27026,531.374804 C1627.79875,533.073968 1625.17277,534.464192 1622.70125,536.317825 L1608.3356,546.976215 L1579.44982,568.292995 L1550.7185,589.609775 L1493.56482,632.243335 C1455.2564,660.820178 1416.94799,689.39702 1378.79404,718.128332 L1149.56142,890.516205 L1092.25327,933.458704 L1034.94511,976.401202 L919.865395,1061.82279 L916.930476,1063.98536 L913.532148,1062.74961 L685.071877,980.571877 L456.766074,898.085206 L228.614741,815.135128 L114.616309,773.428385 L0.617877679,731.567172 L4.17067433,721.681129 Z" id="Path" fill="#00DBFF"></path>
                    <path d="M4.32514375,756.591218 L918.011762,1090.5541 L911.524046,1091.48092 C971.458181,1046.68479 1031.08338,1001.42525 1090.86304,956.320178 L1269.73863,820.541558 L1448.30528,684.453999 L1626.56299,547.903032 L1626.71746,547.903032 L1626.87193,547.903032 L1681.70857,515.309984 C1699.93596,504.342656 1718.16336,493.375327 1736.39075,482.253528 C1754.61814,471.2862 1772.69106,460.009932 1790.76398,448.888134 C1808.83691,437.611866 1826.90983,426.335599 1844.67381,414.750392 L1846.83638,413.360167 L1849.46236,414.441453 L2720.51542,777.44459 L2708.0034,779.452692 L3093.25013,449.81495 L3103.59958,461.709096 L2723.60481,797.371145 L2718.04391,802.314166 L2711.24726,799.379247 L1845.44616,424.018557 L1850.23471,423.709618 C1831.54391,433.750131 1813.00758,444.254051 1794.31678,454.603502 C1775.78045,465.107423 1757.24412,475.611343 1738.86226,486.269733 C1720.32593,496.773654 1702.09854,507.586513 1683.71668,518.399373 L1628.72556,550.837951 L1628.88003,550.683481 L1451.2402,688.006796 L1273.9093,825.639049 L1096.88735,963.73471 C1037.88003,1009.92107 979.027182,1055.95295 920.328803,1102.44825 L917.393884,1104.76529 L913.841087,1103.37507 L1.08128594,766.63173 L4.32514375,756.591218 Z" id="Path" fill="#00DBFF"></path>
                </g>
                <g id="Group" fill="#000000" fill-rule="nonzero">
                    <polygon id="Path" points="7.26006273 21.4712493 874.914794 590.845531 871.053058 591.463408 1321.79482 4.17067433 1325.03868 0 1329.82723 1.85363304 1861.04757 189.688447 1859.50288 194.168061 1325.19315 15.446942 1333.22556 12.9754313 875.532671 594.861735 873.987977 596.869838 871.825405 595.479613 0 32.4385781" fill="#00DBFF"></polygon>
                    <path d="M6.95112389,63.6414009 L61.3243596,97.9336121 L115.697595,131.916884 L224.598536,200.037899 L442.709357,335.816519 L551.764767,403.474124 L660.974647,471.13173 L879.548876,605.983534 L875.84161,606.601411 L931.914009,538.325928 L987.67747,469.895975 L1098.89545,332.572661 L1154.50444,263.833769 C1173.04077,240.972295 1191.5771,217.956351 1210.11343,195.249347 C1247.34056,149.526398 1284.72216,104.112389 1322.10376,58.5439101 L1325.19315,54.836644 L1329.82723,56.2268688 L1456.64663,95.307632 C1498.81678,108.437533 1541.1414,121.567433 1583.31155,134.851803 C1625.4817,148.136174 1667.65186,161.420544 1709.82201,174.859383 C1751.99216,188.452692 1794.00784,201.891532 1836.02352,215.793779 L1834.6333,220.273393 C1791.99974,208.379247 1749.52065,196.021694 1707.04156,183.66414 C1664.56247,171.306587 1622.08338,158.794564 1579.75876,146.282541 C1537.27967,133.770518 1494.95504,120.949556 1452.63042,108.283063 L1325.65656,69.8201777 L1333.22556,67.5031364 C1295.68949,112.917146 1258.15342,158.331155 1220.46289,203.590695 C1201.61762,226.2977 1182.61788,248.695766 1163.77261,271.402771 L1106.92786,339.060376 L993.0839,474.375588 L936.548092,542.342133 L880.166754,610.308677 L878.62206,612.31678 L876.459488,610.926555 L657.885259,476.229221 L548.52091,409.035024 L439.002091,341.995295 L219.809984,208.070308 L109.982227,141.493988 L55.1455829,108.128594 L0.15446942,74.9176686 L6.95112389,63.6414009 Z" id="Path" fill="#00DBFF"></path>
                    <path d="M6.64218505,105.811553 L61.3243596,138.4046 L116.006534,170.843178 L225.525353,235.720335 L444.717459,364.547831 L664.218505,493.066388 L774.046262,557.171197 L884.028489,621.121537 L880.166754,621.739415 L935.621275,558.252483 C954.003136,537.090173 972.539467,515.927862 990.766858,494.611082 L1100.90355,367.019341 L1155.89467,303.223471 L1183.39022,271.402771 L1211.04025,239.58207 L1238.69028,207.76137 L1266.49477,176.095139 C1285.0311,154.932828 1303.41296,133.770518 1322.10376,112.762676 L1325.03868,109.518819 L1329.20936,110.600105 L1389.45243,126.510455 L1449.6955,142.575274 C1489.85755,153.388134 1530.0196,164.046524 1570.02718,175.013853 C1610.18923,185.826712 1650.19681,196.94851 1690.35886,208.070308 C1730.36644,219.192107 1770.37402,230.313905 1810.3816,241.899111 L1809.14584,246.533194 C1768.67486,236.95609 1728.35834,226.915578 1688.04182,217.029535 C1647.7253,206.989022 1607.40878,196.94851 1567.09226,186.753528 C1526.77574,176.558547 1486.45923,166.209096 1446.29718,155.859645 L1385.89963,140.258233 L1325.50209,124.502352 L1332.60768,122.33978 C1314.07135,143.502091 1295.53502,164.509932 1276.99869,185.672243 L1249.1942,217.338474 L1221.23523,248.850235 L1193.27627,280.361997 L1165.16283,311.719289 L1108.93596,374.433873 L996.482227,500.017512 C977.636958,520.870883 959.100627,541.878725 940.409827,562.886566 L884.491898,625.910089 L882.792734,627.763722 L880.630162,626.527967 L771.111343,562.423157 L661.129117,498.472818 L441.010193,370.881077 L220.736801,243.752744 L110.445635,180.420282 L55.3000523,148.754051 L0,117.24229 L6.64218505,105.811553 Z" id="Path" fill="#00DBFF"></path>
                    <path d="M6.48771563,147.981704 L61.4788291,178.875588 L116.469942,209.615003 L226.606639,271.093832 L447.034501,393.433612 L667.771302,515.309984 L778.216937,576.016466 L833.516989,606.292473 L888.817041,636.568479 L884.955306,637.186357 L939.79195,578.487977 C958.019341,558.870361 976.246733,539.252744 994.319655,519.635128 L1103.37507,401.774961 C1139.67538,362.539728 1175.97569,323.150026 1212.58495,284.069263 C1230.81234,264.451647 1249.1942,244.9885 1267.42159,225.525353 L1294.91715,196.330633 L1322.56717,167.135912 L1325.34762,164.200993 L1329.20936,164.97334 C1367.3633,173.314689 1405.36278,181.501568 1443.36226,189.997386 L1500.51594,202.663879 L1557.51516,215.484841 L1614.51438,228.305802 L1671.51359,241.281234 C1709.51307,250.085991 1747.51255,258.890748 1785.35755,268.004443 L1784.43074,272.638526 C1746.12232,265.378463 1707.96837,257.809462 1669.65996,250.24046 L1612.3518,238.655254 L1555.04365,226.915578 L1497.73549,215.175902 L1440.58181,203.281756 C1402.42786,195.403816 1364.27392,187.216937 1326.11997,179.030058 L1332.76215,177.021955 L1305.2666,206.216675 L1277.77104,235.411396 C1259.38918,254.874543 1241.00732,274.337689 1222.62546,293.646367 C1185.86174,332.418191 1148.63461,371.035546 1111.56194,409.652901 L1000.34396,525.350497 C981.807632,544.659174 963.271302,563.967852 944.889441,583.276529 L889.589388,641.357031 L887.890225,643.210664 L885.727653,641.974909 L830.58207,611.544433 L775.282018,581.268427 L664.836383,520.561945 L443.636174,399.612389 L222.127026,279.126242 L111.063513,219.346576 L55.6089911,189.379509 L0.15446942,159.566911 L6.48771563,147.981704 Z" id="Path" fill="#00DBFF"></path>
                    <path d="M6.17877679,190.151856 L61.4788291,219.346576 L116.778881,248.386827 L227.533455,306.467329 L449.197073,422.010455 L671.169629,537.090173 C745.160481,575.398589 819.151333,613.707005 893.451124,651.552013 L889.589388,652.16989 L943.808155,598.414532 L997.717982,544.350235 L1105.69211,436.376111 L1159.60193,382.311814 L1213.8207,328.556456 C1250.12101,292.87402 1286.26686,257.037114 1322.72164,221.509148 L1325.34762,219.037637 L1328.90042,219.655515 L1382.81025,228.460272 L1436.72007,237.419498 L1490.6299,246.533194 L1544.53973,255.801359 L1598.44956,265.069524 L1652.35938,274.492159 C1688.35076,280.825405 1724.18766,287.313121 1760.02457,293.955306 L1759.25222,298.589388 C1723.10638,293.646367 1686.96053,288.394407 1650.96916,283.142446 L1596.90486,275.110037 L1542.84056,266.923157 L1488.77627,258.736278 L1434.71197,250.394929 L1380.64767,241.899111 L1326.58338,233.248824 L1332.60768,231.240721 C1296.46184,267.077627 1260.00706,302.605593 1223.55227,338.13356 L1168.71563,391.27104 L1113.72452,444.254051 L1003.89676,550.837951 L948.905646,603.820962 L894.069002,656.958442 L892.369838,658.657606 L890.207266,657.57632 C816.370883,619.113434 742.225562,580.959488 668.08024,542.805541 L445.798745,428.65264 L223.208312,314.963147 L111.68139,258.427339 L55.91793,230.159435 L0.15446942,202.046001 L6.17877679,190.151856 Z" id="Path" fill="#00DBFF"></path>
                    <path d="M6.02430737,232.476477 L61.6332985,259.972033 L117.24229,287.313121 L228.460272,341.995295 L451.359645,450.896236 L674.567956,559.1793 L786.249347,613.243596 L842.167277,640.121275 L898.085206,666.844485 L894.223471,667.462363 L947.82436,618.495557 L1001.27078,569.374281 L1108.16362,471.13173 C1143.69158,438.384213 1179.52849,405.791166 1215.36539,373.198118 L1269.27522,324.540251 L1323.33952,276.036853 L1325.65656,273.874281 L1328.74595,274.18322 L1379.56639,279.58965 L1430.38683,285.150549 C1464.21563,288.703346 1498.1989,292.565081 1532.02771,296.426817 L1582.84814,302.296654 L1633.66858,308.166492 C1667.49739,312.182697 1701.32619,316.198902 1735.15499,320.524046 L1734.69158,325.312598 C1700.70831,322.686618 1666.72504,319.906168 1632.74177,316.971249 L1581.76686,312.491636 L1530.79195,307.857554 C1496.80868,304.768165 1462.97987,301.678777 1428.9966,298.28045 L1378.17616,293.337428 L1327.35572,288.239937 L1332.76215,286.540774 L1279.0068,335.198641 L1225.09697,383.702039 C1189.10559,415.986147 1152.95975,448.115787 1116.65944,480.245426 L1007.29509,576.325405 L952.92185,624.365395 L898.703084,672.559854 L897.003921,674.104548 L894.841349,673.023262 L839.077888,645.836644 L783.314428,618.804496 L671.633037,564.894668 L448.115787,457.383952 L224.289597,350.491113 L112.299268,297.353633 L56.2268688,270.784893 L0.30893884,244.216153 L6.02430737,232.476477 Z" id="Path" fill="#00DBFF"></path>
                    <path d="M5.71536853,274.646628 L61.6332985,300.443021 L117.551228,326.084945 C154.932828,343.231051 192.159958,360.377156 229.387088,377.368792 L453.522216,479.473079 L677.811814,580.959488 C752.575013,614.788291 827.338212,648.617094 902.56482,681.673549 L898.703084,682.136958 C916.467067,667.462363 934.076581,652.787768 951.686095,637.958704 L1004.51464,593.78045 L1110.32619,505.269472 L1136.74046,483.180345 L1163.3092,461.245687 C1181.07318,446.571093 1198.6827,431.896498 1216.44668,417.376372 L1269.73863,373.661526 L1323.18505,330.10115 L1325.19315,328.401986 L1327.81913,328.556456 C1359.63983,329.637742 1391.46053,331.027967 1423.28123,332.418191 C1455.10193,333.653947 1486.92263,335.198641 1518.74334,336.588866 L1566.47439,338.905907 L1614.20544,341.222948 C1646.02614,342.767642 1677.84684,344.621275 1709.51307,346.474909 L1709.3586,351.263461 C1677.5379,350.954522 1645.7172,350.491113 1613.8965,349.873236 L1566.16545,348.946419 L1518.4344,347.865133 C1486.6137,347.092786 1454.793,346.320439 1422.97229,345.393623 C1391.15159,344.466806 1359.33089,343.694459 1327.51019,342.613173 L1332.14428,341.068479 L1278.85233,384.783325 L1225.56038,428.49817 C1207.79639,443.018296 1189.87794,457.538421 1172.11396,472.058547 L1145.39075,493.838735 L1118.51307,515.464454 L1011.00235,601.812859 L957.246994,645.064297 C939.328542,659.429953 921.410089,673.795609 903.491636,688.315734 L901.638003,689.860429 L899.629901,688.933612 C825.021171,654.641401 750.103502,620.967067 675.340303,587.292734 L450.741767,486.424203 L225.834292,386.173549 C188.298223,369.490852 150.762154,352.962624 113.226085,336.279927 L56.8447465,311.41035 L0.463408259,286.695243 L5.71536853,274.646628 Z" id="Path" fill="#00DBFF"></path>
                    <path d="M5.40642969,316.81678 L61.6332985,341.068479 L117.860167,365.165708 C155.396236,381.230528 192.777836,397.295348 230.313905,413.205698 L455.684788,508.35886 L681.210141,603.048615 C756.436749,634.560376 831.663356,666.072138 907.044433,696.966022 L903.182697,697.42943 L1112.64323,540.025091 C1130.09827,526.895191 1147.70779,513.91976 1165.16283,500.789859 C1182.61788,487.659958 1200.22739,474.838996 1217.83691,461.863565 C1252.90146,435.912703 1288.27496,410.116309 1323.49399,384.319916 L1325.19315,383.084161 L1327.35572,383.084161 L1416.48458,379.840303 L1505.61343,376.905384 C1535.27156,376.133037 1565.08416,375.206221 1594.74229,374.433873 C1624.40042,373.661526 1654.21302,373.043649 1683.87114,372.58024 L1684.02561,377.368792 C1654.36749,379.376895 1624.70936,381.230528 1595.05123,383.084161 C1565.3931,384.937794 1535.73497,386.482488 1505.92237,388.181652 L1416.79352,392.815734 L1327.66466,397.140878 L1331.5264,395.750653 C1296.46184,421.701516 1261.39728,447.806848 1226.17825,473.603241 C1208.56874,486.578672 1190.95923,499.399634 1173.34971,512.220596 C1155.7402,525.041558 1138.13068,538.016989 1120.3667,550.683481 L907.81678,703.917146 L905.963147,705.307371 L903.955044,704.380554 C829.037376,672.250915 753.810768,640.739153 678.584161,609.381861 L452.749869,515.309984 L226.606639,421.855985 C188.9161,406.254574 151.225562,390.807632 113.535024,375.36069 L56.9992159,352.190277 L0.30893884,329.174334 L5.40642969,316.81678 Z" id="Path" fill="#00DBFF"></path>
                    <path d="M5.09749085,358.986932 C42.7880293,373.970465 80.4785677,388.953999 118.169106,403.783063 C155.859645,418.612128 193.550183,433.595661 231.240721,448.424726 L457.692891,537.090173 L684.453999,625.137742 C759.989545,654.641401 835.679561,683.527182 911.524046,712.104025 L907.662311,712.567433 L1115.26921,574.780711 L1167.32541,540.4885 L1219.3816,506.505227 C1236.68217,495.07449 1254.13722,483.798223 1271.59226,472.676424 L1323.80293,438.847622 L1325.19315,437.920805 L1326.73785,437.766336 L1409.68792,427.416884 L1492.638,417.376372 C1520.28803,414.132514 1547.93806,410.888657 1575.58808,407.799268 C1603.23811,404.70988 1630.88813,401.620491 1658.69263,398.685572 L1659.31051,403.319655 C1631.81495,407.644799 1604.31939,411.969942 1576.66937,415.986147 C1549.17381,420.156822 1521.52378,424.018557 1494.02823,428.189232 L1411.38709,439.928907 L1328.59148,451.359645 L1331.5264,450.278359 L1279.4702,484.4161 C1262.16963,495.846837 1244.71458,507.123105 1227.25954,518.399373 L1175.04888,552.228176 L1122.68374,585.902509 L912.605332,719.518557 L910.751699,720.754313 L908.743596,719.981965 C833.36252,690.014898 757.826973,660.665708 682.136958,631.470988 L455.22138,544.041296 L227.996864,457.383952 C190.151856,442.863826 152.152378,428.65264 114.307371,414.286984 C76.4623628,399.921328 38.4628855,385.555672 0.463408259,371.344485 L5.09749085,358.986932 Z" id="Path" fill="#00DBFF"></path>
                    <path d="M4.94302143,401.311553 C42.7880293,415.2138 80.6330371,428.961579 118.632514,442.863826 C156.477522,456.611605 194.476999,470.513853 232.322007,484.107162 L346.16597,525.041558 C384.165447,538.634867 422.010455,552.382645 460.009932,565.975954 L688.006796,647.226869 C764.00575,674.413487 840.004705,701.136696 916.312598,727.242028 L912.605332,727.550967 L1015.17303,668.389179 C1049.46524,648.771563 1083.60298,628.845008 1117.89519,609.381861 L1169.33351,580.032671 L1220.92629,550.99242 L1324.26634,493.220857 L1325.19315,492.757449 L1326.11997,492.60298 L1402.7368,475.147935 L1479.5081,458.00183 L1556.2794,441.319132 C1581.92133,435.758233 1607.56325,430.351803 1633.20518,425.099843 L1634.28646,429.733926 C1608.95348,436.376111 1583.62049,443.018296 1558.13304,449.351542 L1481.82514,468.50575 L1405.51725,487.351019 L1329.05489,505.88735 L1330.90852,505.115003 L1227.87742,563.504443 L1176.28463,592.544694 L1124.53738,621.276006 C1090.0907,640.430214 1055.33508,659.429953 1020.73393,678.429692 L916.930476,735.428907 L915.076843,736.510193 L913.22321,735.892316 C837.533194,708.08782 761.534239,680.746733 685.535285,654.023523 L457.383952,573.236017 C419.384475,559.797177 381.230528,546.512807 343.231051,533.073968 L229.07815,492.911918 C191.078672,479.473079 152.924726,466.343178 114.770779,453.213278 C76.6168322,439.928907 38.6173549,426.799007 0.463408259,413.669106 L4.94302143,401.311553 Z" id="Path" fill="#00DBFF"></path>
                    <path d="M4.63408259,443.481704 L920.483272,743.461317 L917.857292,743.615787 L943.190277,730.949294 L968.523262,718.437271 L1019.18923,693.413225 C1053.01803,676.884997 1086.84684,660.356769 1120.83011,644.13748 C1154.65891,627.763722 1188.64219,611.544433 1222.62546,595.325144 L1324.72974,546.976215 L1325.03868,546.821746 L1325.34762,546.667277 L1395.63121,521.952169 C1419.11056,513.91976 1442.58991,505.578411 1466.22373,497.70047 C1489.70308,489.668061 1513.33691,481.79012 1536.97073,473.91218 C1560.60455,466.188709 1584.23837,458.465238 1608.02666,451.050706 L1609.57135,455.530319 C1586.55541,464.798484 1563.23053,473.75771 1540.06012,482.716937 C1516.8897,491.521694 1493.56482,500.326451 1470.23994,508.976738 C1446.91505,517.781495 1423.59017,526.122844 1400.26529,534.773131 L1330.13617,560.106116 L1330.75405,559.797177 L1228.64976,607.991636 C1194.51202,623.901986 1160.52875,639.966806 1126.39101,655.722687 C1092.25327,671.633037 1058.11553,687.388918 1023.82331,702.990329 L972.384997,726.315212 L946.743074,738.518296 L920.946681,750.103502 L919.710925,750.72138 L918.47517,750.257972 L0.617877679,455.993727 L4.63408259,443.481704 Z" id="Path" fill="#00DBFF"></path>
                </g>
                <g id="Group" transform="translate(1391.769472, 513.610821)" fill="#000000" fill-rule="nonzero">
                    <polygon id="Path" points="219.501045 128.055149 459.546524 1.08128594 461.554626 0 463.562729 0.926816519 1335.38813 381.848406 1332.14428 382.311814 1705.65133 56.3813382 1715.69185 68.1210141 1336.16048 387.100366 1334.61579 388.336121 1332.91662 387.563774 459.855463 9.42263461 463.871668 9.26816519 221.04574 131.144537" fill="#00DBFF"></polygon>
                </g>
            </g>
        </g>
    </g>
</svg>